<svg id="Слой_1" data-name="Слой 1" xmlns="http://www.w3.org/2000/svg" xmlns:xlink="http://www.w3.org/1999/xlink" viewBox="0 0 583.65 250.24"><defs><style>.cls-1{fill:url(#Безымянный_градиент);}.cls-2{fill:url(#Безымянный_градиент_2);}.cls-3,.cls-8{fill:#333;}.cls-4{fill:#ffdd2d;}.cls-4,.cls-6,.cls-8{fill-rule:evenodd;}.cls-5{mask:url(#mask);}.cls-6{fill:#1a1a1a;}.cls-7{mask:url(#mask-2);}</style><linearGradient id="Безымянный_градиент" x1="16293.46" y1="-14433.53" x2="14451.96" y2="-14433.23" gradientTransform="matrix(0.03, 0, 0, -0.03, -253.6, -65.64)" gradientUnits="userSpaceOnUse"><stop offset="0" stop-color="#fff"/><stop offset="1" stop-color="#fff" stop-opacity="0"/></linearGradient><linearGradient id="Безымянный_градиент_2" x1="17182.37" y1="-14425.55" x2="19023.89" y2="-14425.25" xlink:href="#Безымянный_градиент"/><mask id="mask" x="-0.26" y="124.7" width="54.43" height="92.35" maskUnits="userSpaceOnUse"><g transform="translate(-129.12 -172.52)"><g id="id0"><rect class="cls-1" x="128.86" y="297.21" width="54.43" height="92.35"/></g></g></mask><mask id="mask-2" x="129.32" y="124.7" width="54.43" height="92.35" maskUnits="userSpaceOnUse"><g transform="translate(-129.12 -172.52)"><g id="id2"><rect class="cls-2" x="258.43" y="297.21" width="54.43" height="92.35"/></g></g></mask></defs><g id="Layer_1"><g id="_900816672" data-name=" 900816672"><path class="cls-3" d="M424.43,369.58H396.57V247.07h-38.3V225.55H502.5c16.84,0,29.28,4.25,37.41,12.7a42,42,0,0,1,12.19,30q0,19.77-13.18,32t-33.47,12.24h-36v56.72h0v.37h-26v-113h26v33.62H500.2q12,0,18.34-5.93c4.25-3.94,6.32-9.18,6.32-15.73a21.69,21.69,0,0,0-5.81-15.19q-5.91-6.33-21.2-6.32H424.43V369.58Zm162-65v33.11h-26V225.55h90.23v20.89H586.4V284h24.92c12.56,0,22.54,1.08,29.85,3.26s13.29,6.83,18,13.95,7,15.5,7,25.23q0,19.26-12.13,31.21t-35.46,11.93h-130V347.19q63.44,0,126.85,0,24.36,0,24.38-21.77a21.32,21.32,0,0,0-5.42-14.91c-3.57-4-10.8-6-21.6-6H586.4Z" transform="translate(-129.12 -172.52)"/><path class="cls-4" d="M143.55,205.71H298.26c7.94,0,14.43,8.25,14.43,18.37V370.91c0,10.09-6.49,18.37-14.43,18.37H257.61V352.57l46.94-46.94c4.48-4.48,4-12.27-1-17.32l-73.42-73.42c-5.05-5-12.84-5.52-17.32-1l-75.52,75.51c-4.45,4.48-4,12.27,1.05,17.32l45.9,45.89v36.71H143.55c-7.94,0-14.43-8.28-14.43-18.37V224.08C129.12,214,135.61,205.71,143.55,205.71Z" transform="translate(-129.12 -172.52)"/><path class="cls-4" d="M208.26,253.87V422.76H183V297.24H164.83Z" transform="translate(-129.12 -172.52)"/><path class="cls-4" d="M233.46,253.79q21.73,21.72,43.4,43.45H258.72V422.76H233.46Z" transform="translate(-129.12 -172.52)"/><g class="cls-5"><polygon class="cls-6" points="53.89 216.76 0.03 216.76 0.03 124.98 53.89 178.84 53.89 216.76"/></g><polygon class="cls-4" points="79.14 34.64 79.14 0 53.89 0 53.89 34.64 79.14 34.64"/><polygon class="cls-4" points="129.57 34.64 129.57 0 104.31 0 104.31 34.64 129.57 34.64"/><g class="cls-7"><polygon class="cls-6" points="129.6 216.76 183.46 216.76 183.46 124.98 129.6 178.95 129.6 216.76"/></g><path class="cls-8" d="M690.09,223.51a22.67,22.67,0,1,1-22.67,22.65A22.67,22.67,0,0,1,690.09,223.51Zm0,4.51A18.16,18.16,0,1,1,672,246.16,18.14,18.14,0,0,1,690.09,228Z" transform="translate(-129.12 -172.52)"/><path class="cls-3" d="M694.49,258.15h6l-6.72-9c3.37-.85,5.38-3.23,5.38-7.15,0-4.76-3.06-7.79-8.19-7.79H680.71v23.95h4.88v-8.62h2.72Zm-8.9-19.3h4.87c2.53,0,3.77,1.22,3.77,3.2s-1.19,3.2-3.77,3.2h-4.87Z" transform="translate(-129.12 -172.52)"/></g></g></svg>