<svg width="72" height="71" viewBox="0 0 72 71" fill="none" xmlns="http://www.w3.org/2000/svg">
<path d="M71.8 0C71.8 23.4 71.8 46.9 71.8 70.3C71.8 70.7 71.7 70.8 71.3 70.8C47.8 70.8 24.4 70.8 0.900024 70.8C1.00002 47.4 1.00002 24 1.00002 0.6C1.00002 0.1 1.10002 0 1.60002 0C25 0 48.4 0 71.8 0ZM69.5 35.4C69.5 24.6 69.5 13.8 69.5 2.9C69.5 2.4 69.4 2.3 68.9 2.3C47.3 2.3 25.6 2.3 4.00002 2.3C3.50002 2.3 3.40002 2.4 3.40002 2.9C3.40002 24.5 3.40002 46.2 3.40002 67.8C3.40002 68.3 3.50002 68.4 4.00002 68.4C25.6 68.4 47.3 68.4 68.9 68.4C69.4 68.4 69.5 68.3 69.5 67.8C69.5 57 69.5 46.2 69.5 35.4Z" fill="black"/>
<path d="M31.8 43.6C31.8 43.4 31.8 43.3 31.8 43.1C31.8 38 31.8 32.9 31.8 27.8C31.8 27.3 31.7 27.3 31.2 27.3C27.3 27.3 23.4 27.3 19.5 27.3C19.1 27.3 19 27.2 19 26.8C19 24.1 19 21.3 19 18.6C19 18.2 19 18.1 19.5 18.1C30.8 18.1 42 18.1 53.3 18.1C53.7 18.1 53.8 18.2 53.8 18.6C53.8 21.3 53.8 24.1 53.8 26.8C53.8 27.2 53.7 27.3 53.3 27.3C49.4 27.3 45.4 27.3 41.5 27.3C41.1 27.3 41 27.4 41 27.8C41 32.8 41 37.8 41 42.8C41 43.4 40.8 43.8 40.4 44.2C37.5 47 34.7 49.9 31.9 52.7C31.7 52.5 31.8 52.3 31.8 52.1C31.8 49.5 31.8 46.8 31.8 44.2C31.8 43.9 31.8 43.8 31.8 43.6Z" fill="black"/>
<path d="M31.8 43.6C31.8 43.8 31.8 44 31.8 44.1C31.8 46.7 31.8 49.4 31.8 52C31.8 52.2 31.7 52.4 31.9 52.6C31.8 52.8 31.6 52.7 31.4 52.7C27.5 52.7 23.5 52.7 19.6 52.7C19.1 52.7 19 52.6 19 52.1C19 49.4 19 46.7 19 44C19 43.6 19.1 43.5 19.5 43.5C22.6 43.5 25.7 43.5 28.7 43.5C29.8 43.6 30.8 43.5 31.8 43.6Z" fill="#DFA859"/>
</svg>
